<?xml version="1.0" encoding="UTF-8"?>
<svg xmlns="http://www.w3.org/2000/svg" xmlns:xlink="http://www.w3.org/1999/xlink" width="18px" height="18px" viewBox="0 0 18 18" version="1.1">
<g id="surface1">
<path style=" stroke:none;fill-rule:nonzero;fill:rgb(0%,0%,0%);fill-opacity:1;" d="M 8.773438 1.878906 C 8.640625 1.9375 8.527344 2.058594 8.476562 2.191406 C 8.449219 2.261719 8.4375 3.605469 8.4375 6.515625 L 8.4375 10.738281 L 7.269531 9.574219 C 6.628906 8.929688 6.054688 8.386719 6 8.371094 C 5.746094 8.273438 5.445312 8.378906 5.3125 8.613281 C 5.230469 8.757812 5.214844 8.992188 5.277344 9.117188 C 5.332031 9.226562 8.644531 12.542969 8.761719 12.605469 C 8.882812 12.671875 9.117188 12.671875 9.238281 12.605469 C 9.292969 12.578125 10.089844 11.796875 11.011719 10.875 C 12.820312 9.058594 12.769531 9.121094 12.710938 8.804688 C 12.679688 8.644531 12.496094 8.453125 12.3125 8.402344 C 12.007812 8.308594 11.988281 8.320312 10.714844 9.589844 L 9.5625 10.738281 L 9.554688 6.460938 C 9.546875 2.203125 9.546875 2.183594 9.472656 2.089844 C 9.433594 2.035156 9.359375 1.957031 9.308594 1.921875 C 9.191406 1.835938 8.914062 1.808594 8.773438 1.878906 Z M 8.773438 1.878906 "/>
<path style=" stroke:none;fill-rule:nonzero;fill:rgb(0%,0%,0%);fill-opacity:1;" d="M 1.597656 10.914062 C 1.460938 10.972656 1.347656 11.113281 1.296875 11.28125 C 1.273438 11.371094 1.265625 11.800781 1.273438 12.601562 C 1.285156 13.785156 1.289062 13.800781 1.386719 14.113281 C 1.628906 14.914062 2.140625 15.519531 2.867188 15.871094 C 3.496094 16.179688 2.953125 16.152344 9 16.152344 C 15.046875 16.152344 14.503906 16.179688 15.136719 15.871094 C 15.875 15.515625 16.417969 14.851562 16.636719 14.042969 C 16.703125 13.789062 16.714844 13.65625 16.722656 12.550781 C 16.738281 11.339844 16.738281 11.335938 16.65625 11.183594 C 16.550781 10.980469 16.429688 10.890625 16.214844 10.871094 C 15.992188 10.847656 15.792969 10.953125 15.683594 11.144531 C 15.613281 11.269531 15.609375 11.324219 15.609375 12.359375 C 15.609375 13.578125 15.585938 13.777344 15.390625 14.144531 C 15.246094 14.417969 14.945312 14.71875 14.695312 14.84375 C 14.261719 15.058594 14.558594 15.046875 9 15.046875 C 3.445312 15.046875 3.75 15.058594 3.3125 14.84375 C 3.042969 14.714844 2.742188 14.410156 2.605469 14.136719 C 2.414062 13.761719 2.390625 13.570312 2.390625 12.359375 C 2.390625 11.324219 2.386719 11.269531 2.316406 11.144531 C 2.179688 10.902344 1.859375 10.800781 1.597656 10.914062 Z M 1.597656 10.914062 "/>
</g>
</svg>
