<svg width="20" height="14" viewBox="0 0 20 14" fill="none" xmlns="http://www.w3.org/2000/svg">
<circle cx="10" cy="4.5" r="4.1" stroke="black" stroke-width="0.8"/>
<mask id="path-2-inside-1_97_473" fill="white">
<path d="M19.5 14C19.5 13.3434 19.2543 12.6932 18.7769 12.0866C18.2994 11.48 17.5997 10.9288 16.7175 10.4645C15.8354 10.0002 14.7881 9.63188 13.6355 9.3806C12.4829 9.12933 11.2476 9 10 9C8.75244 9 7.5171 9.12933 6.36451 9.3806C5.21191 9.63188 4.16464 10.0002 3.28249 10.4645C2.40033 10.9288 1.70056 11.48 1.22314 12.0866C0.745725 12.6932 0.5 13.3434 0.5 14L10 14H19.5Z"/>
</mask>
<path d="M19.5 14C19.5 13.3434 19.2543 12.6932 18.7769 12.0866C18.2994 11.48 17.5997 10.9288 16.7175 10.4645C15.8354 10.0002 14.7881 9.63188 13.6355 9.3806C12.4829 9.12933 11.2476 9 10 9C8.75244 9 7.5171 9.12933 6.36451 9.3806C5.21191 9.63188 4.16464 10.0002 3.28249 10.4645C2.40033 10.9288 1.70056 11.48 1.22314 12.0866C0.745725 12.6932 0.5 13.3434 0.5 14L10 14H19.5Z" stroke="black" stroke-width="1.6" mask="url(#path-2-inside-1_97_473)"/>
</svg>
