<?xml version="1.0" encoding="UTF-8"?>
<svg xmlns="http://www.w3.org/2000/svg" xmlns:xlink="http://www.w3.org/1999/xlink" width="18px" height="18px" viewBox="0 0 18 18" version="1.1">
<g id="surface1">
<path style=" stroke:none;fill-rule:nonzero;fill:rgb(0%,0%,0%);fill-opacity:1;" d="M 8.773438 1.894531 C 8.675781 1.941406 8.085938 2.511719 6.972656 3.625 C 5.515625 5.085938 5.3125 5.308594 5.292969 5.421875 C 5.257812 5.609375 5.296875 5.78125 5.402344 5.910156 C 5.578125 6.117188 5.839844 6.167969 6.074219 6.050781 C 6.144531 6.011719 6.703125 5.480469 7.3125 4.871094 L 8.421875 3.761719 L 8.4375 8.03125 C 8.457031 12.273438 8.457031 12.300781 8.527344 12.394531 C 8.667969 12.582031 8.777344 12.636719 9 12.636719 C 9.222656 12.636719 9.335938 12.582031 9.472656 12.394531 C 9.546875 12.300781 9.546875 12.28125 9.554688 8.023438 L 9.5625 3.746094 L 10.75 4.929688 C 11.546875 5.722656 11.96875 6.121094 12.035156 6.136719 C 12.1875 6.171875 12.429688 6.132812 12.542969 6.054688 C 12.742188 5.910156 12.824219 5.566406 12.710938 5.351562 C 12.636719 5.203125 9.3125 1.90625 9.199219 1.867188 C 9.054688 1.808594 8.933594 1.820312 8.773438 1.894531 Z M 8.773438 1.894531 "/>
<path style=" stroke:none;fill-rule:nonzero;fill:rgb(0%,0%,0%);fill-opacity:1;" d="M 1.597656 10.914062 C 1.460938 10.972656 1.347656 11.113281 1.296875 11.28125 C 1.273438 11.371094 1.265625 11.800781 1.273438 12.601562 C 1.285156 13.785156 1.289062 13.800781 1.386719 14.113281 C 1.628906 14.914062 2.140625 15.519531 2.867188 15.871094 C 3.496094 16.179688 2.953125 16.152344 9 16.152344 C 15.046875 16.152344 14.503906 16.179688 15.136719 15.871094 C 15.875 15.515625 16.417969 14.851562 16.636719 14.042969 C 16.703125 13.789062 16.714844 13.65625 16.722656 12.550781 C 16.738281 11.339844 16.738281 11.335938 16.65625 11.183594 C 16.550781 10.980469 16.429688 10.890625 16.214844 10.871094 C 15.992188 10.847656 15.792969 10.953125 15.683594 11.144531 C 15.613281 11.269531 15.609375 11.324219 15.609375 12.359375 C 15.609375 13.578125 15.585938 13.777344 15.390625 14.144531 C 15.246094 14.417969 14.945312 14.71875 14.695312 14.84375 C 14.261719 15.058594 14.558594 15.046875 9 15.046875 C 3.445312 15.046875 3.75 15.058594 3.3125 14.84375 C 3.042969 14.714844 2.742188 14.410156 2.605469 14.136719 C 2.414062 13.761719 2.390625 13.570312 2.390625 12.359375 C 2.390625 11.324219 2.386719 11.269531 2.316406 11.144531 C 2.179688 10.902344 1.859375 10.800781 1.597656 10.914062 Z M 1.597656 10.914062 "/>
</g>
</svg>
